<svg width="145" height="54" viewBox="0 0 145 54" fill="none" xmlns="http://www.w3.org/2000/svg">
<path d="M86.8112 43.653C86.8112 44.5863 86.8344 45.3923 86.881 46.0711C86.9276 46.7498 86.9969 48.2491 87.0434 49.0127L91.0438 48.9356C91.9211 48.9356 92.3911 50.225 91.0438 50.7286C89.2384 51.4032 90.2803 51.0535 88.4012 51.6058C87.0044 52.03 84.7561 52.6253 83.8779 52.6253C81.5713 52.6253 81.4708 51.6215 81.2938 49.4436C81.2006 48.2558 81.0842 45.6974 81.0842 45.562C81.0842 45.4267 80.991 45.378 80.9333 45.5711C80.8755 45.7643 80.1763 47.2801 79.6176 48.171C79.1054 49.0194 78.407 49.783 77.5224 50.4618C76.6843 51.1405 75.6833 51.692 74.5193 52.1162C73.3552 52.5405 72.0283 52.7526 70.5384 52.7526C67.6982 52.7526 65.3702 51.9678 63.5543 50.3981C61.785 48.8285 60.9004 46.771 60.9004 44.2257C60.9004 42.2743 61.3194 40.6834 62.1575 39.4532C63.0422 38.1805 64.3226 37.1836 65.9987 36.4624C67.6749 35.7413 69.7468 35.2322 72.2145 34.9352C74.6822 34.5959 77.5457 34.3413 80.8049 34.1716C80.9911 32.3475 81.0377 30.7143 80.9446 29.2719C80.898 27.7871 80.6419 26.5357 80.1763 25.5175C79.7573 24.457 79.1054 23.651 78.2208 23.0995C75.8284 21.4041 71.8151 21.2403 69.1415 23.6407C66.468 26.041 66.9765 30.4809 66.9765 30.4809C67.1149 31.1982 65.5918 31.659 65.1606 30.4809C64.297 28.1208 63.4508 25.01 63.275 22.5268C65.0443 21.5511 66.9998 20.7874 69.1415 20.236C71.3299 19.6845 73.751 19.4087 76.4049 19.4087C78.7795 19.4087 80.6652 19.7269 82.062 20.3632C83.5054 20.9571 84.5995 21.742 85.3445 22.7177C86.0895 23.6934 86.5784 24.7751 86.8112 25.963C87.044 27.1508 87.1604 28.3386 87.1604 29.5264C87.1604 32.0718 87.0905 34.5322 86.9508 36.9079C86.8577 39.2411 86.8112 41.4895 86.8112 43.653ZM73.332 48.8073C74.496 48.8073 75.5203 48.5952 76.4049 48.171C77.2896 47.7467 78.0345 47.2377 78.6398 46.6438C79.2451 46.0499 79.734 45.456 80.1065 44.862C80.479 44.2257 80.735 43.6954 80.8747 43.2712V36.5897C78.1742 36.5897 75.9626 36.717 74.2399 36.9715C72.5172 37.226 71.1669 37.629 70.1892 38.1805C69.2114 38.732 68.5363 39.432 68.1638 40.2804C67.7913 41.0865 67.6051 42.0197 67.6051 43.0803C67.6051 44.9045 68.1172 46.3256 69.1415 47.3437C70.1659 48.3194 71.5627 48.8073 73.332 48.8073Z" fill="black"/>
<path d="M111.066 24.3444C108.263 25.6903 106.809 27.8684 105.976 29.9719V48.8709C106.907 48.9558 107.838 49.1255 108.769 49.38C109.7 49.5921 110.632 49.9315 111.563 50.3981C112.57 50.903 112.038 51.989 111.563 51.989H95.0805C94.4383 51.989 94.0727 50.8442 95.0805 50.3981C95.9424 50.0166 96.7101 49.6558 97.4551 49.4436C98.2001 49.2315 98.945 49.0406 99.69 48.8709V23.354H95.9423C95.0702 23.354 94.7047 21.8319 95.9423 21.4331C97.4322 20.8392 98.129 20.717 99.69 20.2996C101.363 19.8522 103.118 19.5148 104.23 19.4087C105.341 19.3027 105.976 19.4087 105.976 19.4087V26.1539H106.255C106.674 25.3054 107.256 24.457 108.001 23.6085C108.793 22.7601 109.677 21.9965 110.655 21.3177C111.679 20.639 112.773 20.1299 113.937 19.7905C115.148 19.4087 116.891 19.2815 118.148 19.4087C119 21.3177 118.339 24.1749 117.765 24.5095C117.765 24.5095 113.869 22.9984 111.066 24.3444Z" fill="black"/>
<path d="M36.6376 52.7534H21.7065C21.111 52.7534 20.8501 51.5103 21.7065 51.0681C22.1716 50.7985 22.7298 50.5289 23.381 50.2592C24.0787 49.9446 24.8927 49.675 25.823 49.4503V33.8785C25.823 32.0809 25.73 30.4631 25.5439 29.025C25.4044 27.5869 25.1021 26.396 24.6369 25.4523C24.2183 24.4636 23.5903 23.7221 22.7531 23.2277C21.9158 22.6884 20.8227 22.4188 19.4738 22.4188C18.4505 22.4188 17.4969 22.621 16.6132 23.0255C15.7759 23.43 15.0084 23.9692 14.3107 24.6433C13.6595 25.3174 13.0781 26.0814 12.5664 26.9353C12.1013 27.7891 11.7292 28.6879 11.4501 29.6317V49.4503C12.1943 49.675 12.892 49.9222 13.5432 50.1918C14.2409 50.4165 14.9154 50.7086 15.5666 51.0681C16.3424 51.4965 16.1442 52.7534 15.5666 52.7534H0.565713C-0.0917511 52.7534 -0.279567 51.3878 0.565713 51.0681C1.21691 50.7536 1.93789 50.4614 2.72863 50.1918C3.51937 49.9222 4.33337 49.675 5.17063 49.4503V22.4188C3.66821 22.4188 2.72559 22.4188 1.90127 22.4188C0.242205 22.3347 0.431276 20.9921 1.1187 20.5884C2.00562 20.0676 3.45781 19.5679 5.10086 19.1831C6.68235 18.7786 8.10978 18.4645 9.70578 18.2394C11.3018 18.0143 11.4501 18.2394 11.4501 18.2394V25.8567H11.5198C12.2641 23.7445 13.52 21.9469 15.2875 20.4639C17.1016 18.9809 19.3343 18.2394 21.9856 18.2394C23.1019 18.2394 24.1718 18.3517 25.1951 18.5764C26.2184 18.8011 27.1719 19.2281 28.0557 19.8572C28.9395 20.4414 29.6837 21.2728 30.2884 22.3514C30.8931 23.43 31.335 24.8231 31.6141 26.5308C32.4513 24.0591 33.8002 22.0593 35.6608 20.5313C37.5214 19.0033 39.8471 18.2394 42.638 18.2394C44.359 18.2394 45.8475 18.4641 47.1034 18.9135C48.4058 19.3179 49.4756 20.0594 50.3129 21.138C51.1501 22.2166 51.7548 23.6771 52.1269 25.5197C52.5455 27.3622 52.7549 29.6991 52.7549 32.5303V49.4503C54.3363 49.7199 55.8713 50.2592 57.3598 51.0681C58.3096 51.5307 58.1113 52.7534 57.3598 52.7534H42.3589C41.6041 52.7534 41.5206 51.4286 42.3589 51.0681C43.7543 50.3491 45.1265 49.8098 46.4754 49.4503V32.6652C46.4754 31.0473 46.3824 29.6092 46.1963 28.3509C46.0568 27.0926 45.7544 26.0365 45.2893 25.1826C44.8242 24.2838 44.173 23.6097 43.3357 23.1603C42.4984 22.666 41.3821 22.4188 39.9867 22.4188C37.754 22.4188 36.0097 23.1603 34.7538 24.6433C33.5444 26.1264 32.6606 28.0138 32.1025 30.3058V49.4503C33.7305 49.8997 35.2422 50.439 36.6376 51.0681C37.566 51.4867 37.3364 52.7534 36.6376 52.7534Z" fill="#861515"/>
<path d="M22.0757 3.01377C16.4987 3.47908 11.9945 8.22809 10.3769 9.82079C12.9285 8.87903 15.8287 7.90819 20.7086 7.50105C26.8085 6.99212 30.5835 11.0504 35.0269 10.6796C39.3839 10.3161 45.4194 5.6823 48.3432 2.27993C46.1447 3.92109 40.5768 5.84338 36.394 6.19237C31.1655 6.62859 29.047 2.43213 22.0757 3.01377Z" fill="#861515"/>
<path d="M120.324 21.6475C122.599 20.7226 123.693 20.5031 125.838 19.8447V14.1294C126.714 13.4529 128.772 12.8173 130.117 12.5088C131.462 12.2003 132.114 12.5088 132.114 12.5088V18.9668C132.114 18.9668 137.541 18.9023 139 18.9668C140.458 19.0312 140.531 20.7226 139 21.1615C137.469 21.6005 132.114 22.9173 132.114 22.9173V41.8101C132.114 44.3554 132.556 46.1584 133.439 47.219C134.323 48.2795 135.648 48.8098 137.414 48.8098C138.251 48.8098 139.297 48.7674 140.552 48.6825C141.807 48.5553 142.877 48.3431 143.76 48.0462C144.311 47.8102 144.722 48.5139 144.248 49.0007C143.876 49.3825 143.342 49.7855 142.644 50.2097C141.993 50.634 141.226 51.037 140.343 51.4188C139.506 51.8006 138.576 52.1188 137.554 52.3733C136.531 52.6278 135.485 52.7551 134.416 52.7551C131.626 52.7551 129.488 52.0339 128 50.5915C126.559 49.1492 125.838 46.8159 125.838 43.5918V23.3563H120.26C119.538 23.4022 119.539 21.9668 120.324 21.6475Z" fill="black"/>
</svg>
